<?xml version="1.0" encoding="utf-8"?>
<!-- Generator: Adobe Illustrator 26.0.2, SVG Export Plug-In . SVG Version: 6.00 Build 0)  -->
<svg version="1.1" id="Capa_1" xmlns="http://www.w3.org/2000/svg" xmlns:xlink="http://www.w3.org/1999/xlink" x="0px" y="0px"
	 viewBox="0 0 401.9 401.9" style="enable-background:new 0 0 401.9 401.9;" xml:space="preserve">
<style type="text/css">
	.st0{display:none;}
	.st1{display:inline;}
	.st2{fill:#FFFFFF;}
	.st3{fill:#080508;}
	.st4{opacity:0.9;fill:#404582;enable-background:new    ;}
</style>
<g id="Capa_1_00000008150707822629319650000010570368887598205884_" class="st0">
	<g class="st1">
		<path class="st2" d="M-280.3,424.3c3.8,5.7,10.5,13.9,21.2,19.6c5.2,2.8,9.1,6.2,31.7,6.4c22.3,0.3,44.7-0.2,67,0.3
			c2.5,0,3-1.1,3-3.1c0-5.2-0.1-10.5,0-15.7c0-2.9-1.2-3.9-4-3.9c-10.1,0.1-20.2,0.3-30.3,0c-12.5-0.4-24.1-3.8-33.9-12
			c-4.7-3.9-8.1-8.8-10.5-14.4c-5.1-11.9-7.4-24.5-7.2-37.2c0.9-55,0-110,0.8-165c0.4-27.3,0-54.6,0.6-81.9
			c0.2-11.6,1.9-23.1,5.6-34.2c5.6-16.7,17.6-26.1,34.3-30.1c4.7-1.1,9.6-1.7,14.5-1.6c9.2,0.1,18.5,0,27.7,0c4.4,0,4.6-0.3,4.6-4.7
			c0-4.4,0-8.7,0-13.1c0-4.3-0.4-4.7-4.7-4.7c-17.5,0-34.9,0-52.4,0c-9.6,0-19.2-0.5-28.7,1.5c-8,1.7-21.1,4.5-30.7,15.1
			c0,0-4.8,5.4-7.8,12.7C-289.9,83.7-281.1,396.6-280.3,424.3z"/>
		<path class="st2" d="M-322,15.8"/>
		<path class="st2" d="M-320.1,17.8c3,1.8,4,3.2,3.8,6.3c-0.2,4.6,0,9.2,0,13.9c0,5.6-0.1,5.6-5.3,7.4
			c-14.6,4.9-28.7,10.8-42.4,17.8c-16.1,8.2-25.5,20.8-29.2,38.4c-2.9,14-4.4,28.1-4.6,42.3c-0.7,61.8,0.8,123.7-0.8,185.6
			c-0.5,19.6,0.8,39.2-1.5,58.7c-1.4,11.3-3,22.5-7.3,33.1c-3.5,8.7-9.4,15.1-17.7,19.6c-10.2,5.5-21.2,8.3-32.7,8.6
			c-23.2,0.5-46.4,0.1-69.6,0.2c-2.7,0-3.9-1-3.8-3.7c0.1-4.5,0-9,0-13.5c0-5.1,0.2-5.2,5.2-5.3c12-0.2,24,0.8,35.9-0.8
			c16.6-2.2,29.7-9.6,37.3-25.2c6.4-13.1,8.1-27.3,8.2-41.5c0.5-48.9-0.3-97.8,0.9-146.7c0.2-10.5-0.1-21,0.1-31.4
			c0.2-15.6-0.8-31.2,0.7-46.7c1.5-14.8,4.8-29,11.6-42.3c11.2-21.8,28.8-37,50.2-48.1c8.7-4.5,17.6-8.8,26.4-13.3
			C-354.6,31.1-323,16-320.1,17.8z"/>
		<path class="st3" d="M-281.6,60.5c2.5-8.2,7.4-14.1,7.4-14.1c8.9-10.9,21.8-14.5,29.4-16.3c9.6-2.3,19.4-2.5,29.3-2.5
			c19.2,0.1,38.4,0.2,57.6,0.1c3.1,0,3.7,1,3.6,3.8c-0.2,5.9-0.3,11.7,0,17.6c0.1,3.1-1,3.6-3.8,3.6c-10.4-0.1-20.7-0.3-31.1,0
			c-14,0.4-26.8,4.1-36.8,14.6c-7.8,8.2-10.7,18.6-12.8,29.3c-1.9,10.1-2.4,20.3-2.4,30.5c-0.2,67.5-0.4,135-0.7,202.5
			c-0.1,11.6-1.3,23.2-0.7,34.8c0.6,10.5,1.8,20.8,5,30.9c5.9,18.9,19.5,28.2,38.2,30.8c13.1,1.9,26.4,0.5,39.6,0.7
			c2.5,0,3.4,0.5,3.3,3.2c-0.2,6.5-0.1,13,0,19.5c0,1.9-0.4,2.6-2.5,2.5c-23.9-0.2-47.9,0-71.8-0.6c-10.7-0.2-21.2-2.6-31-7.4
			c-11.2-5.4-15.7-12.3-16.6-13.7c-1.8-2.7-3-5.3-3.7-7.1C-282.6,398.4-290,87.6-281.6,60.5z"/>
		<path class="st3" d="M-322,15.8c6.8,1.1,7.6,5.7,7,11.5c-0.4,4.1-0.3,8.2,0,12.3c0.2,3.5-0.8,5.1-4.3,6.3
			c-15.1,4.7-29.5,11-43.6,18c-18.1,8.9-27,23.6-30.1,42.9c-2.5,15.8-3.6,31.7-3.7,47.6c-0.2,65.1-0.3,130.2-0.5,195.3
			c0,18-0.6,35.9-4,53.6c-1,5.2-2.4,10.4-4,15.5c-5.9,18-20.1,25.6-37.2,29.6c-7.8,1.8-15.7,2.4-23.7,2.4c-21-0.1-41.9-0.1-62.9-0.1
			c-2.5,0-3.4-0.5-3.3-3.2c0.2-6.2,0.3-12.5,0.1-18.7c-0.1-2.7,0.9-3,3.2-3c10,0.1,20,0.2,29.9,0.1c8.3-0.1,16.3-1.4,24-4.7
			c16-6.9,23.3-20.1,26.6-36.3c2.1-10.4,3-20.9,3-31.5c0.2-69.6,0.3-139.2,0.8-208.8c0.2-28.5,8.8-54.4,28.5-75.8
			c10.9-11.8,24.2-20.6,38.6-27.7c8.5-4.2,16.9-8.3,26-12.8C-351.4,28.4-325.5,14.7-322,15.8z"/>
	</g>
</g>
<path class="st4" d="M399.3,15.9c-0.2,5.3-0.3,10.7,0,16c0.1,2.8-1.1,3.3-4,3.3c-10.9-0.1-21.7-0.3-32.6,0
	c-14.7,0.3-28.1,3.7-38.6,13.3c-8.1,7.5-11.3,16.9-13.4,26.7c-2,9.2-2.5,18.4-2.5,27.8c-0.2,61.4-0.4,122.8-0.7,184.2
	c-0.1,10.5-1.4,21.1-0.7,31.6c0.6,9.5,1.9,18.9,5.2,28.1c6.2,17.2,20.5,25.6,40.1,28.1c13.8,1.7,27.7,0.5,41.6,0.7
	c2.6,0,3.6,0.4,3.5,2.9c-0.2,5.9-0.1,11.8,0,17.7c0,1.7-0.5,2.3-2.6,2.3c-25.1-0.2-50.3,0-75.4-0.5c-11.2-0.2-22.2-2.4-32.5-6.7
	c-11.8-5-16.5-11.2-17.5-12.5c-1.9-2.5-3.1-4.8-3.8-6.4c-0.6-22.5-8.4-305.4,0.4-330c2.7-7.4,7.8-12.9,7.8-12.9
	c9.4-9.9,22.9-13.2,30.9-14.9c10.1-2.1,20.4-2.3,30.7-2.3c20.2,0.1,40.3,0.2,60.5,0.1C398.8,12.4,399.5,13.3,399.3,15.9z M223.3,1.7
	c-3.7-1-30.9,11.4-30.9,11.4c-9.6,4.1-18.4,7.9-27.3,11.7C150,31.2,136,39.2,124.5,50c-20.7,19.4-29.7,43-29.9,68.9
	c-0.6,63.3-0.6,126.7-0.9,190c0,9.7-1,19.2-3.2,28.7c-3.4,14.7-11.1,26.8-27.9,33c-8,3-16.5,4.2-25.2,4.2c-10.5,0.1-20.9,0.1-31.4,0
	c-2.4,0-3.5,0.3-3.4,2.7c0.2,5.7,0.2,11.4-0.1,17c-0.1,2.5,0.8,2.9,3.5,2.9c22-0.1,44,0,66,0c8.4,0,16.7-0.5,24.9-2.2
	c17.9-3.6,32.8-10.6,39-27c1.8-4.6,3.2-9.3,4.2-14.1c3.5-16.1,4.1-32.4,4.2-48.8c0.2-59.2,0.4-118.5,0.5-177.7
	c0.1-14.5,1.2-29,3.8-43.3c3.3-17.6,12.6-30.9,31.6-39.1c14.9-6.4,30-12.1,45.8-16.4c3.7-1,4.8-2.5,4.6-5.7c-0.3-3.7-0.4-7.5,0-11.2
	C231.3,6.8,230.5,2.7,223.3,1.7z"/>
</svg>
