<?xml version="1.0" standalone="no"?>
<!DOCTYPE svg PUBLIC "-//W3C//DTD SVG 20010904//EN"
 "http://www.w3.org/TR/2001/REC-SVG-20010904/DTD/svg10.dtd">
<svg version="1.0" xmlns="http://www.w3.org/2000/svg"
 width="338.000000pt" height="367.000000pt" viewBox="0 0 338.000000 367.000000"
 preserveAspectRatio="xMidYMid meet">
<metadata>
Created by potrace 1.16, written by Peter Selinger 2001-2019
</metadata>
<g transform="translate(0.000000,367.000000) scale(0.100000,-0.100000)"
fill="#000000" stroke="none">
<path d="M1545 3516 c-80 -28 -61 -17 -355 -205 -41 -26 -95 -59 -120 -73 -25
-14 -127 -75 -226 -136 -100 -60 -186 -111 -190 -113 -5 -2 -75 -44 -155 -92
-204 -122 -270 -192 -320 -341 -22 -65 -25 -163 -14 -561 3 -115 2 -268 -2
-340 -4 -71 -5 -211 -2 -310 7 -188 17 -237 66 -330 23 -43 125 -155 142 -155
5 0 11 -4 13 -8 3 -8 153 -98 243 -147 28 -14 97 -55 155 -90 58 -35 166 -98
240 -141 74 -42 153 -89 175 -104 22 -14 51 -31 65 -38 14 -6 54 -31 90 -53
102 -66 168 -95 269 -118 90 -21 95 -22 160 -6 36 10 92 28 124 41 50 20 381
214 615 361 37 23 110 67 162 98 52 31 135 81 184 111 49 30 91 54 93 54 10 0
150 110 174 136 32 36 58 82 89 159 l25 60 0 670 0 670 -24 60 c-30 74 -42 93
-104 173 -75 96 -145 145 -407 284 -19 10 -48 27 -65 38 -16 11 -43 26 -60 35
-16 8 -50 28 -75 44 -25 17 -101 62 -170 102 -69 40 -127 75 -130 79 -17 22
-279 159 -360 189 -76 29 -220 27 -305 -3z m270 -7 c70 -19 230 -105 569 -308
182 -109 384 -226 449 -262 65 -35 143 -83 172 -107 96 -74 186 -206 215 -311
8 -32 11 -218 10 -672 -1 -685 -1 -681 -60 -799 -51 -100 -102 -141 -410 -325
-91 -54 -247 -149 -347 -212 -267 -165 -471 -284 -527 -305 -27 -10 -77 -26
-113 -34 -72 -16 -144 -8 -237 27 -56 21 -62 24 -521 294 -176 103 -387 227
-469 274 -172 99 -258 172 -304 258 -62 117 -61 105 -63 823 -3 642 -2 656 18
712 27 72 84 159 134 201 21 19 121 82 221 142 299 177 706 423 820 496 102
66 176 102 228 112 49 9 176 7 215 -4z"/>
<path d="M1625 3289 c-48 -11 -122 -55 -283 -165 -129 -89 -338 -215 -622
-375 -199 -112 -277 -176 -301 -246 -11 -30 -14 -164 -14 -668 l0 -631 35 -59
c55 -92 94 -124 260 -211 151 -79 540 -306 729 -426 193 -124 267 -142 382
-95 60 25 380 216 599 357 74 48 208 130 298 181 196 113 233 142 267 216 l27
56 1 626 1 626 -22 47 c-41 84 -139 162 -333 267 -172 94 -304 171 -594 351
-82 51 -178 106 -212 123 -70 32 -152 42 -218 26z m275 -76 c81 -43 126 -71
250 -152 30 -20 66 -41 80 -48 14 -7 52 -31 85 -52 72 -48 151 -94 260 -151
44 -23 98 -53 120 -66 22 -13 60 -33 84 -46 64 -31 166 -136 191 -192 19 -46
20 -67 20 -649 0 -567 -1 -605 -19 -654 -34 -92 -59 -113 -296 -249 -66 -38
-192 -114 -280 -171 -88 -56 -187 -118 -220 -138 -33 -20 -107 -65 -165 -100
-185 -113 -224 -130 -310 -129 -67 0 -82 4 -137 35 -61 34 -129 75 -213 129
-25 16 -103 63 -175 105 -71 42 -177 105 -235 141 -58 35 -118 71 -135 79
-254 131 -281 150 -340 235 l-30 43 -3 634 c-1 409 1 648 8 672 10 37 64 100
127 147 30 23 257 154 265 154 3 0 65 36 138 80 73 44 134 80 136 80 6 0 123
76 334 217 14 9 49 32 78 51 29 20 82 43 120 52 59 15 73 15 122 3 30 -8 93
-35 140 -60z"/>
<path d="M1275 2742 c-135 -91 -188 -131 -198 -148 -8 -14 -3 -656 8 -1149 7
-296 15 -333 80 -370 26 -16 67 -29 99 -32 53 -5 60 -3 138 42 46 26 115 68
153 93 131 85 181 117 253 162 40 25 112 70 160 101 48 30 137 86 197 124 61
38 161 102 224 143 63 41 125 79 138 85 12 5 25 19 29 29 7 22 -9 37 -76 70
-25 12 -71 37 -102 55 -84 49 -122 46 -225 -20 -45 -28 -118 -74 -163 -102
-44 -27 -120 -75 -168 -106 -212 -136 -330 -208 -363 -222 l-36 -15 -1 649 c0
660 -1 680 -36 678 -6 0 -56 -30 -111 -67z m125 -628 c0 -593 2 -675 15 -670
14 5 527 323 630 391 154 101 220 136 245 130 30 -7 250 -125 250 -134 0 -3
-125 -85 -278 -182 -685 -436 -887 -562 -929 -581 -79 -35 -169 -1 -208 77
-19 39 -20 60 -20 750 l0 710 138 92 c75 51 142 93 147 93 7 0 10 -237 10
-676z"/>
</g>
</svg>
